<svg xmlns="http://www.w3.org/2000/svg" viewBox="0 0 512 512">
  <g id="SKETCH">
    <g>
      <g>
        <rect x="364.5" y="65.5" width="80" height="80" fill="#fff"/>
        <rect x="364.5" y="65.5" width="80" height="80" fill="none" stroke="#231f20" stroke-miterlimit="10"/>
      </g>
      <g>
        <rect x="264.5" y="65.5" width="80" height="80" fill="#fff"/>
        <rect x="264.5" y="65.5" width="80" height="80" fill="none" stroke="#231f20" stroke-miterlimit="10"/>
      </g>
      <g>
        <rect x="164.5" y="65.5" width="80" height="80" fill="#fff"/>
        <rect x="164.5" y="65.5" width="80" height="80" fill="none" stroke="#231f20" stroke-miterlimit="10"/>
      </g>
      <g>
        <rect x="64.5" y="65.5" width="80" height="80" fill="#fff"/>
        <rect x="64.5" y="65.5" width="80" height="80" fill="none" stroke="#231f20" stroke-miterlimit="10"/>
      </g>
    </g>
    <g>
      <g>
        <rect x="364.5" y="165.5" width="80" height="80" fill="#1c75bc"/>
        <rect x="364.5" y="165.5" width="80" height="80" fill="none" stroke="#231f20" stroke-miterlimit="10"/>
      </g>
      <g>
        <rect x="264.5" y="165.5" width="80" height="80" fill="#1c75bc"/>
        <rect x="264.5" y="165.5" width="80" height="80" fill="none" stroke="#231f20" stroke-miterlimit="10"/>
      </g>
      <g>
        <rect x="164.5" y="165.5" width="80" height="80" fill="#1c75bc"/>
        <rect x="164.5" y="165.5" width="80" height="80" fill="none" stroke="#231f20" stroke-miterlimit="10"/>
      </g>
      <g>
        <rect x="64.5" y="165.5" width="80" height="80" fill="#1c75bc"/>
        <rect x="64.5" y="165.5" width="80" height="80" fill="none" stroke="#231f20" stroke-miterlimit="10"/>
      </g>
    </g>
    <g>
      <g>
        <rect x="364.5" y="265.5" width="80" height="80" fill="#fff"/>
        <rect x="364.5" y="265.5" width="80" height="80" fill="none" stroke="#231f20" stroke-miterlimit="10"/>
      </g>
      <g>
        <rect x="264.5" y="265.5" width="80" height="80" fill="#fff"/>
        <rect x="264.5" y="265.5" width="80" height="80" fill="none" stroke="#231f20" stroke-miterlimit="10"/>
      </g>
      <g>
        <rect x="164.5" y="265.5" width="80" height="80" fill="#fff"/>
        <rect x="164.5" y="265.5" width="80" height="80" fill="none" stroke="#231f20" stroke-miterlimit="10"/>
      </g>
      <g>
        <rect x="64.5" y="265.5" width="80" height="80" fill="#fff"/>
        <rect x="64.5" y="265.5" width="80" height="80" fill="none" stroke="#231f20" stroke-miterlimit="10"/>
      </g>
    </g>
    <g>
      <g>
        <rect x="364.5" y="365.5" width="80" height="80" fill="#fff"/>
        <rect x="364.5" y="365.5" width="80" height="80" fill="none" stroke="#231f20" stroke-miterlimit="10"/>
      </g>
      <g>
        <rect x="264.5" y="365.5" width="80" height="80" fill="#fff"/>
        <rect x="264.5" y="365.5" width="80" height="80" fill="none" stroke="#231f20" stroke-miterlimit="10"/>
      </g>
      <g>
        <rect x="164.5" y="365.5" width="80" height="80" fill="#fff"/>
        <rect x="164.5" y="365.5" width="80" height="80" fill="none" stroke="#231f20" stroke-miterlimit="10"/>
      </g>
      <g>
        <rect x="64.5" y="365.5" width="80" height="80" fill="#fff"/>
        <rect x="64.5" y="365.5" width="80" height="80" fill="none" stroke="#231f20" stroke-miterlimit="10"/>
      </g>
    </g>
    <g>
      <g>
        <rect x="364.5" y="65.5" width="80" height="80" fill="#fff"/>
        <rect x="364.5" y="65.5" width="80" height="80" fill="none" stroke="#231f20" stroke-miterlimit="10"/>
      </g>
      <g>
        <rect x="264.5" y="65.5" width="80" height="80" fill="#fff"/>
        <rect x="264.5" y="65.5" width="80" height="80" fill="none" stroke="#231f20" stroke-miterlimit="10"/>
      </g>
      <g>
        <rect x="164.5" y="65.5" width="80" height="80" fill="#fff"/>
        <rect x="164.5" y="65.5" width="80" height="80" fill="none" stroke="#231f20" stroke-miterlimit="10"/>
      </g>
      <g>
        <rect x="64.5" y="65.5" width="80" height="80" fill="#fff"/>
        <rect x="64.5" y="65.5" width="80" height="80" fill="none" stroke="#231f20" stroke-miterlimit="10"/>
      </g>
    </g>
    <g>
      <g>
        <rect x="364.5" y="165.5" width="80" height="80" fill="#1c75bc"/>
        <rect x="364.5" y="165.5" width="80" height="80" fill="none" stroke="#231f20" stroke-miterlimit="10"/>
      </g>
      <g>
        <rect x="264.5" y="165.5" width="80" height="80" fill="#1c75bc"/>
        <rect x="264.5" y="165.5" width="80" height="80" fill="none" stroke="#231f20" stroke-miterlimit="10"/>
      </g>
      <g>
        <rect x="164.5" y="165.5" width="80" height="80" fill="#1c75bc"/>
        <rect x="164.5" y="165.5" width="80" height="80" fill="none" stroke="#231f20" stroke-miterlimit="10"/>
      </g>
      <g>
        <rect x="64.5" y="165.5" width="80" height="80" fill="#1c75bc"/>
        <rect x="64.5" y="165.5" width="80" height="80" fill="none" stroke="#231f20" stroke-miterlimit="10"/>
      </g>
    </g>
    <g>
      <g>
        <rect x="364.5" y="265.5" width="80" height="80" fill="#fff"/>
        <rect x="364.5" y="265.5" width="80" height="80" fill="none" stroke="#231f20" stroke-miterlimit="10"/>
      </g>
      <g>
        <rect x="264.5" y="265.5" width="80" height="80" fill="#fff"/>
        <rect x="264.5" y="265.5" width="80" height="80" fill="none" stroke="#231f20" stroke-miterlimit="10"/>
      </g>
      <g>
        <rect x="164.5" y="265.5" width="80" height="80" fill="#fff"/>
        <rect x="164.5" y="265.5" width="80" height="80" fill="none" stroke="#231f20" stroke-miterlimit="10"/>
      </g>
      <g>
        <rect x="64.5" y="265.5" width="80" height="80" fill="#fff"/>
        <rect x="64.5" y="265.5" width="80" height="80" fill="none" stroke="#231f20" stroke-miterlimit="10"/>
      </g>
    </g>
    <g>
      <g>
        <rect x="364.5" y="365.5" width="80" height="80" fill="#fff"/>
        <rect x="364.5" y="365.5" width="80" height="80" fill="none" stroke="#231f20" stroke-miterlimit="10"/>
      </g>
      <g>
        <rect x="264.5" y="365.5" width="80" height="80" fill="#fff"/>
        <rect x="264.5" y="365.5" width="80" height="80" fill="none" stroke="#231f20" stroke-miterlimit="10"/>
      </g>
      <g>
        <rect x="164.5" y="365.5" width="80" height="80" fill="#fff"/>
        <rect x="164.5" y="365.5" width="80" height="80" fill="none" stroke="#231f20" stroke-miterlimit="10"/>
      </g>
      <g>
        <rect x="64.5" y="365.5" width="80" height="80" fill="#fff"/>
        <rect x="64.5" y="365.5" width="80" height="80" fill="none" stroke="#231f20" stroke-miterlimit="10"/>
      </g>
    </g>
  </g>
</svg>
